<svg xmlns="http://www.w3.org/2000/svg" viewBox="900 500 1740 1440" style="fill-rule:evenodd;clip-rule:evenodd;stroke-linejoin:round;stroke-miterlimit:2;">
    <g id="Layer2">
        <g>
            <path d="M1428.06,1178.05L1427.9,1177.78L1313.23,1242.36C1286.14,1257.61 1251.77,1248 1236.52,1220.91C1222.69,1196.37 1229.29,1165.84 1250.8,1148.98L1506.19,1005.17C1508.73,1003.74 1511.12,1002.13 1513.35,1000.39C1516.49,997.928 1519.31,995.176 1521.8,992.195C1522.96,990.794 1524.06,989.342 1525.08,987.845C1536.75,970.705 1538.49,947.733 1527.63,928.454C1527.1,927.514 1526.55,926.596 1525.98,925.699C1511.37,902.871 1482.59,893.858 1457.78,903.733C1455.45,904.659 1453.16,905.75 1450.92,907.013L1293.05,995.912C1267.26,1006.18 1237.18,996.036 1223.19,971.191C1207.94,944.105 1217.55,909.731 1244.63,894.479L1683.85,647.151L1738.96,549.919L2309.48,551.348L2589.02,1041.33L2308.66,1539.09L2161.03,1539.2L1844.02,1717.71C1816.94,1732.97 1782.56,1723.36 1767.31,1696.27C1753.22,1671.26 1760.34,1640.03 1782.84,1623.38L1838.56,1592.01C1840.64,1590.84 1842.61,1589.56 1844.47,1588.18C1860.08,1576.64 1868.29,1558.07 1867.15,1539.43C1866.64,1531.2 1864.32,1522.96 1860.01,1515.3C1844.75,1488.21 1810.38,1478.6 1783.29,1493.85L1385.91,1717.62C1359.63,1729.5 1328.11,1719.52 1313.69,1693.91C1299.38,1668.5 1306.95,1636.67 1330.31,1620.23L1620.33,1456.92C1622.01,1455.98 1623.61,1454.97 1625.15,1453.88C1648.51,1437.45 1656.08,1405.62 1641.77,1380.21C1626.52,1353.12 1592.15,1343.52 1565.06,1358.77L1544.05,1370.6L1543.66,1369.96L1023.39,1662.93C996.302,1678.18 961.928,1668.58 946.676,1641.49C933.494,1618.08 938.88,1589.23 958.07,1571.98L1506.15,1263.36C1509.82,1261.28 1513.18,1258.86 1516.19,1256.15C1535.38,1238.9 1540.77,1210.05 1527.59,1186.64C1512.33,1159.56 1477.96,1149.95 1450.88,1165.2L1428.06,1178.05ZM1137.88,1212.56C1163.45,1203.19 1192.79,1213.56 1206.44,1238.1C1221.54,1265.27 1211.75,1299.59 1184.59,1314.7L1045.76,1391.89C1018.59,1407 984.271,1397.21 969.164,1370.04C956.336,1346.98 961.459,1318.75 979.928,1301.51L1137.88,1212.56ZM1631.65,1708.53C1655.66,1702.49 1681.71,1712.92 1694.44,1735.53C1709.69,1762.61 1700.09,1796.99 1673,1812.24L1558.58,1876.67C1531.49,1891.92 1497.12,1882.32 1481.86,1855.23C1469.13,1832.62 1473.72,1804.94 1491.33,1787.54L1631.65,1708.53ZM1615.53,1099.93L1807.13,1426.98L2182.64,1426.69L1990.54,1098.2L1615.53,1099.93ZM2277.25,1365.62L2459.7,1041.69L2275.83,719.392L2089.89,1045.24L2277.25,1365.62ZM2178.18,663.519L1804.42,662.583L1620.31,987.407L1994.34,985.687L2178.18,663.519Z" style="fill:url(#_Linear1);"/>
        </g>
    </g>
    <defs>
        <linearGradient id="_Linear1" x1="0" y1="0" x2="1" y2="0" gradientUnits="userSpaceOnUse" gradientTransform="matrix(567.834,984.352,-984.352,567.834,1740.87,551.19)"><stop offset="0" style="stop-color:rgb(101,10,221);stop-opacity:1"/><stop offset="1" style="stop-color:rgb(255,80,47);stop-opacity:1"/></linearGradient>
    </defs>
</svg>
